<?xml version="1.0" encoding="utf-8"?>
<!-- Generator: Adobe Illustrator 18.0.0, SVG Export Plug-In . SVG Version: 6.00 Build 0)  -->
<!DOCTYPE svg PUBLIC "-//W3C//DTD SVG 1.1//EN" "http://www.w3.org/Graphics/SVG/1.1/DTD/svg11.dtd">
<svg version="1.1" id="Layer_1" xmlns="http://www.w3.org/2000/svg" xmlns:xlink="http://www.w3.org/1999/xlink" x="0px" y="0px"
	 viewBox="0 0 1080 1296" enable-background="new 0 0 1080 1296" xml:space="preserve">
<g>
	<g>
		<path d="M890.3,1005.8H188.7c-6,0-10.9-4.9-10.9-10.9v-143c0-6,4.9-10.9,10.9-10.9h701.6c6,0,10.9,4.9,10.9,10.9v143
			C901.2,1001,896.4,1005.8,890.3,1005.8z"/>
	</g>
	<g>
		<path fill="#FFFFFF" d="M367,982.8h-26.4v-95.5h-23.7v-23.1h73.9v23.1H367V982.8z"/>
		<path fill="#FFFFFF" d="M471.2,864.2v118.6h-26.4v-46.5h-17.8v46.5h-26.4V864.2h26.4v49h17.8v-49H471.2z"/>
		<path fill="#FFFFFF" d="M507.6,864.2v118.6h-26.4V864.2H507.6z"/>
		<path fill="#FFFFFF" d="M597.6,864.2v118.6h-26.4l-27.2-58.6v58.6h-26.4V864.2h26.2l27.4,61.9v-61.9H597.6z"/>
		<path fill="#FFFFFF" d="M675.4,982.8l-2.2-7.8c-6,6.1-14.8,9.8-25.7,9.8c-35,0-40-14.8-40-61.1c0-44.8,5.6-61.4,40-61.4
			c25.9,0,36.4,16.8,36.4,41.2H655c0-10.6-1.5-18.1-8.8-18.1c-8.3,0-9.6,6.1-9.6,38.4c0,32.9,1.2,38,9.5,38c7,0,9-6.5,9-16.8v-5.1
			h-9.5v-21.4h38.4v64.4H675.4z"/>
		<path fill="#FFFFFF" d="M723.6,896.9c0,20.9,37.9,19.6,37.9,54.1c0,19.9-3,33.7-33.5,33.7c-28.6,0-34-18.1-34-42.5h28.9
			c0,10.6,0,19.4,5.1,19.4c4,0,4.6-4.2,4.6-10.8c0-21.9-37.2-19.1-37.2-54.6c0-24.4,7-34,33.9-34c24.2,0,33,16.8,33,41.2h-28.9
			c0-14.4-0.7-18.1-4.8-18.1C724.9,885.3,723.6,887.4,723.6,896.9z"/>
	</g>
	<g>
		<g>
			<g>
				<path d="M129.9,584.8c-0.8,0.7-1.2,1-1.4,1.3c-2.3,2.7-5.4,4.3-8.4,2.6c-2.8-1.5-3.3-5-3.1-8.2c0.3-6,1.2-12,3.3-17.6
					c1.8-4.9,0.3-8.9-2.7-12.6c-1.4-1.8-2.6-3.7-3.4-5.7c-3-7.8-7-15.2-11-22.5c-1.8-3.2-2.6-6.8-4.5-9.9c-1.4-2.2,0.2-4.9-0.1-7.5
					c-1.3-13.9,0-27.8,0.5-41.7c0.1-2,0.8-3.9,1.1-5.9c0.8-4.9-2.1-9.6-0.8-14.5c1.4-5-0.6-9.8-0.3-14.8c0.1-1.7-0.9-2.4-2.2-2.7
					c-2.4-0.6-4.1-1.7-4.6-4.3c-0.1-0.5-0.4-1.2-0.8-1.5c-6.2-5.4-7.2-13.6-10.6-20.4c-1.4-2.7-1.3-5.7-0.3-8.6
					c2-5.8,2.9-12,6.1-17.3c2.2-3.6,3.1-7.2,3.7-11.1c0.9-5.1,3.2-9.6,5.4-14.1c0.8-1.6,2-2.5,3.6-3.1c6.3-2.7,12.5-5.5,18.8-8.1
					c2-0.8,3-1.9,3.4-4c0.5-2.6,1-5.1,3-7.4c1.3-1.5,0.5-4.5-0.9-6.4c-1.6-2.2-2.9-8.6-1.4-10.8c0.9-1.4,1-2.6,0.8-4
					c-0.7-5.9,1.4-10.6,5.9-12.7c6.4-3,13.2-1.9,17.5,1.7c4,3.3,4.6,7.3,4.5,11.9c-0.1,1.5-0.1,2.7,1.4,4c2.4,2.1,0.4,8.7-2.6,9.8
					c-1.9,0.7-3.1,4.4-1.5,5.5c2.8,1.9,2.5,4.6,2.6,7.2c0,2,0.6,3.2,2.7,3.9c7.4,2.3,13.3,7.5,20.7,9.8c1.6,0.5,2.7,2,3.3,3.5
					c2.7,6,5.3,12,6.7,18.5c1,4.4,3.3,8.5,4.8,12.8c2,5.6,4.4,11.1,5.2,17.2c0.6,4.7-1,8.3-4.3,11.4c-6.1,5.8-12.5,11.3-19.1,16.6
					c-1.7,1.4-2.5,4.5-5.8,2.5c-0.4,4.2,0.9,7.9,1.3,11.7c1.2,11.4-3,21.8-4.7,32.7c-1.3,8.6-3.6,17-5.4,25.5
					c-0.5,2.4-1,4.8-0.6,7.3c0.1,0.5,0.2,1,0.1,1.4c-3.1,7.3-0.1,14.7-0.7,22.1c-1,11.6-1.7,23.3-3.9,34.7c-0.5,2.8-1.2,5.6-1,8.4
					c0.2,4.5-1.5,8.5-3.7,11.9c-2.5,3.8-2.1,7.5-1.7,11.4c1.1,11.4,2.4,9.1-8.4,10.3c-1.5,0.2-3.1,0.1-4.6,0.1
					c-5.1,0-6.3-1.6-3.9-6.3C129.8,594.7,130.2,590.2,129.9,584.8z M130.6,481.5c-1.2,5.9-4.8,11-5.2,17.1c-0.2,3.2-1.1,6.2-2.5,9
					c-0.9,1.8-0.9,3.9-0.1,5.3c3.1,5.5,4.3,11.7,6.6,17.5c0.4,1,0.7,2,1.6,2.6c0.6,0.4,1.1,1,1.9,0.7c0.7-0.3,0.9-1.2,0.7-1.8
					c-1.8-5.5,0.5-11.2-0.6-16.8c-1.6-8-0.1-16.2-0.2-24.2C132.6,487.4,131.6,484.6,130.6,481.5z M167.8,390.9
					c-0.2,4.3-0.9,8.6-2.2,12.7c-0.2,0.7-0.7,1.7,0.3,2.2c0.9,0.4,1.6-0.3,2-1c1.8-2.9,5.2-5.4,2-9.4c-0.4-0.5-0.3-1.6-0.2-2.4
					C169.8,391.6,169.3,391,167.8,390.9z"/>
			</g>
			<g>
				<path d="M234.7,606.9c-0.8,0-1.6,0-2.5,0c-5.6,0-6-0.5-4.2-5.7c1.8-5.2,2.5-10.5,1.3-15.9c-0.3-1.6,0-3.3-0.3-4.9
					c-0.4-2.6,0.8-5.7-2.8-7.1c-1-0.4-1-1.9-1-2.9c0.1-3.3-2.8-6.4-0.8-9.9c0.4-0.8-0.8-1.3-1.3-1.9c-1.3-1.9-1.8-3.9,0.2-5.7
					c0.6-0.6,1.3-1.2,0.8-2.1c-3.9-7.2-1.4-15.1-2.2-22.6c-0.8-7.6,1.1-15.2,0.9-22.8c-0.3-9.4-2.7-18.6-4.5-27.8
					c-0.8-4-1.7-8.1-2.4-12.1c-0.3-1.5-0.6-2-2.2-1.6c-2.1,0.6-3.8-0.5-4.3-2.6c-0.5-2.4-1.1-5-0.5-7.3c0.6-2.3,0.8-4.4,0.5-6.8
					c-0.2-1.3,0.1-2.6,0-3.9c-0.2-1.8,1.5-3.6,0.3-5.1c-1.3-1.5-3.1,0.3-4.7,0.2c-1.3-0.1-2.4-0.5-2.9-1.7c-1.1-3.1-2.4-5.9-2-9.7
					c0.7-6.6,3-13,3.3-19.7c0.1-3.5,2.3-6.9,2.7-10.7c0.9-9.6,1.5-19.3,4.8-28.6c1.6-4.5,3.5-8.8,8.4-10.8c1.7-0.7,1.2-1.9,0.9-2.8
					c-2-6.3,1.8-11.1,5-15.4c1.4-1.9,5.2-3.7,8.5-3.6c1.9,0.1,2-0.4,1.5-2c-1.7-5.3-2.1-10.8-2.9-16.2c-1.1-7.7,3.3-13.7,11.3-15
					c7.1-1.2,14.6,3.6,15.5,10.6c0.7,5.4,2.8,10.7-0.1,16.3c-1,1.9,1,4.6,2.3,6.6c0.8,1.3,2-1.9,3.1-0.2c3.2-4,7.2-2,10.9-1.2
					c5.1,1,6.2,6.3,9.5,9.2c-2,4.1,2.6,9-1.6,12.8c-0.7,0.6-0.8,1.7-0.2,2.6c5.7,8.4,6.8,18.2,8.2,27.7c0.9,6.1,3.5,12,3,18.2
					c-0.9,11.4-4.6,21.8-13.4,29.7c-1.8,1.6-2,3.1-1.9,5.7c0.2,6.1,1.9,12,1.8,18.1c-0.1,4.5-1.3,5.7-5.7,6.5c-6,1.1-6,1.1-6.9,7.5
					c-1.7,12.6-3.5,25.2-5.2,37.7c-0.2,1.6-0.3,3.2,1.2,4.5c1.2,1,1,2.6,1,4c0.3,5.9,0.6,11.8,0.9,17.6c0.3,6.1-0.1,12.3-0.8,18.4
					c-1.2,9.8-3.4,19.7-1,29.7c0.8,3.2,1.6,6.3,1.4,9.7c-0.1,1.9-0.9,3.2-2.6,3.8c-3.2,1.1-6.5,1.1-9.7,0c-2-0.7-2.3-2.4-2.7-4.2
					c-0.6-3.1,0.7-6.1,0.7-9.1c0-4.4-1-8.8-0.6-13c0.5-4.8-0.6-8.8-2.2-13.3c-1.8-5.1-1.1-11.1-0.5-16.6c0.5-4.6,0.7-9-0.4-13.5
					c-1.6-6.3-1.3-12.8-1.3-19.3c0-13.1,0.1-26.2-2.7-39c-0.2-1.1,0.4-3.2-2.1-2.6c-1.9,0.4-3.5,0.3-3.9,3.3
					c-1.1,9.6,0.4,19,1.1,28.5c0.5,6.7,1.1,13.4,0.4,20.2c-0.3,3.4,1.2,7.5,0.9,11.2c-0.4,5.2,1.5,10.5-0.3,15.6
					c-0.5,1.4,0.5,2.5,1.1,3.6c1.6,2.6,2.3,5.3,1.8,8.4c-0.3,2-0.1,4,0.4,5.9c0.8,3.2,0.8,6.3-1.2,9.1c-1.1,1.5-1.2,3-0.7,4.9
					c1.4,5.6,3.5,11.2,1.8,17.3c-0.7,2.6-0.2,5.6-0.1,8.4c0.1,2.4-0.8,3.4-3.3,3.1C237.8,606.7,236.3,606.8,234.7,606.9
					C234.7,606.8,234.7,606.9,234.7,606.9z M273.2,405.3c-0.2,2-0.4,3.6,0.7,5.1c0,0,0.7-0.2,0.8-0.5
					C275.2,408.2,275.5,406.6,273.2,405.3z"/>
			</g>
		</g>
		<g>
			<path d="M971.3,372.6c1.3,1.3,2.6,2.2,4.6,1.5c1.2-0.4,2,0.4,2.8,0.9c3.8,2.8,6.3,6.6,8,10.8c3,7.4,4.8,15.2,7.2,22.8
				c1,3,3.4,5.3,5.4,7.8c-1.3,0.8-2.1-0.4-3.1-0.3c-0.7,2.1,1.2,4.1-0.4,6.1c-0.9-0.9,0.1-2.2-0.8-3.1c-2.1,0.5-1,2.4-1.6,3.6
				c-1-0.3-0.2-1.7-1.3-1.9c-0.9,0.7,0.7,2.3-0.6,2.6c-1.5,0.3-1.3-1.8-2.8-2.1c-0.4,1.8-0.2,3.9-1.5,5.9c-0.9-1.5-0.1-2.9-0.8-4.3
				c-0.4,1.9-0.8,3.6-1.1,5.4c-1.5-1.4-0.7-3.3-1.5-4.8c0.5,2.5-1,4.3-2.2,6.1c-3.3,4.6-4.9,10.1-8.3,14.4c-3,3.8-2.9,7.4-1.8,11.5
				c0.4,1.7,1.2,2.7,3.1,2.7c5.2,0.2,8.6,2.7,10.4,7.7c2.3,6.4,4.6,12.8,7.1,19.1c1.5,3.7,0.5,8.2-0.7,11.9c-1.4,4.3-2,8.6-2.7,12.9
				c-0.4,2.3-0.6,4.5-3.3,5.7c-2,0.9-2.6,3.3-2.3,5.6c0.8,5.2,1.5,10.4,3.5,15.3c3.2,8.1,2.8,16.6,3.2,25.1
				c0.3,6.8,0.3,13.6,0.5,20.5c0.1,2.7,0.2,5.3,1.2,7.9c0.7,1.7,0.6,3.4-0.3,5.1c-2,3.8-3.2,7.8-3.2,12.1c0,0.7,0.1,1.6-0.9,1.7
				c-1.2,0.1-1.1-0.9-0.9-1.5c0.7-3.9-1.5-3.8-4.2-3.2c-5.1,1.2-8.5-2.5-7.5-7.2c0.1-0.7,0.3-1.5,0.8-2c4.3-5.3,5.4-11.3,3.8-17.9
				c-0.3-1.3-0.3-2.6-0.1-4c0.6-3.1,0.8-6.3,0.1-9.2c-1.8-8.1-2-16.4-3.9-24.4c-0.6-2.6-3.3-3.8-2.8-6.7c-0.8,0.3-1.4,0.3-1.7,0.7
				c-3.2,4.1-7.5,2.8-11.7,2.5c-0.1,0-0.2,0-0.3,0c-6-0.8-7.2,0-7.2,6.3c0,8.6-2.6,16.6-4.8,24.8c-1.7,6.4-5,12.4-4.9,19.3
				c0,1.8,0,3.6,0.6,5.1c1.2,2.8,1.1,5.4-0.1,8.1c-1.3,3.1-1,6.3-1.3,9.5c-0.1,0.9,0.5,2.3-1.2,2.4c-1.5,0-1-1.3-1.1-2.1
				c-0.3-1.8-0.4-3.7-0.5-5.5c-0.1-1-0.1-2.5-1.1-2.6c-1.3-0.2-1.2,1.3-1.5,2.3c-0.7,2.8-1.7,5.2-5.1,5.8c-3.2,0.6-7.2-2-7.3-5.3
				c-0.1-2.6-1.1-5.9,3.6-5.7c1.2,0,2.1-1.2,2.1-2.7c-0.1-5.9,2.1-11.5,2.8-17.3c0.6-4.7,3.4-9.3,3.6-14.2
				c0.3-8.1,3.7-15.6,4.5-23.6c0.4-4,0.4-8,0.6-12c0.1-2.6-2.2-5.3-3.3-8.1c-2-5-4-9.9-4.6-15.3c-0.4-3.8-3.6-6.7-3.8-10.7
				c0-0.9-1.2-0.6-1.8-0.4c-12.1,2.9-24.3,5.7-36.4,8.6c-1.9,0.4-3.2,1.6-3.6,3.4c-0.3,1.2-0.8,2-2.1,2.3c-5,1.4-10.1,3-15.1,4.5
				c-1.5-3,1.4-4.8,1.8-7.3c1.8,1.1,1.9-2.1,3.6-1.5c0.7,0.2,1.1-0.2,0.7-1.1c-0.3-0.8,0-1.3,0.8-0.9c1.4,0.8,1.7,0.3,1.6-1.1
				c-0.1-0.8,0.5-1,1.2-0.6c0.8,0.5,1.5,0.2,1.4-0.8c-0.2-1.4,0.1-1.5,1.2-0.8c0.2,0.1,0.8-0.1,0.8-0.1c-0.3-3.7,2.6-0.1,3.3-1.5
				c1.6,1,3.2,0.3,4.8-0.1c11.4-3.2,22.8-6.4,34.2-9.5c2.4-0.6,3.3-1.6,2.7-4c-0.2-0.7-0.1-1.4-0.1-2.2c-0.2-1.9-1.9-3.9-0.2-5.8
				c2.5-2.8,5.3-5.3,9.4-5.3c1,0,2.1,0.1,3.1,0c1.6-0.2,3.9,1.2,4.6,0c1.1-1.9,1.7-4.5,1.5-6.8c-0.3-3,0-5.7,0.7-8.5
				c0.3-1.2,0.2-2.5,0.2-3.7c0-3.1-0.2-6,1.5-9c1.1-1.8,1.3-4.4,0.6-6.7c-1.5-5.4,0.4-9.2,5.2-11.9c0.6-0.3,1.3-0.7,1.4-1.7
				c-3.3-0.7-6.6-1.4-9.9-2c-4.2-0.8-5.1-2.3-4.1-6.3c1.2-4.6,4-8.1,7.2-11.4c1.5-1.6,2.3-3.2,2.2-5.5c-0.2-5.7,2.3-10.6,4.8-15.4
				c1.4-2.6,3.7-4.3,6.8-5c2.6-0.6,4.9-2,7-3.6C970.5,372.6,970.9,372.6,971.3,372.6z M965.2,535.2c3.1,0.1,6.8-4.3,6-6.9
				c-1.3-4.2-2.1-8.5-2.5-12.9c-0.4-4.9-1.5-9.7-2.4-14.6c-0.1-0.8-0.3-1.7-1.4-1.8c-1-0.1-1.1,0.8-1.4,1.4
				c-0.8,1.6-1.7,3.1-2.2,4.7c-2.4,8.3-6.5,16.2-7.4,25c-0.2,1.8,0.2,2.6,2,2.4c1.4-0.2,2.5,0.4,3.8,1
				C961.7,534.2,963.7,534.7,965.2,535.2z M940.8,521.6c0.1-0.2,0.2-0.4,0.2-0.6c2-7.6,0.7-15.7,2.9-23.3c0.6-2,0.6-4.1,1.2-6
				c0.5-1.8-0.2-2-1.6-1.7c-2.5,0.6-5,1.2-7.5,1.9c-3.8,1-3.8,1-2.2,4.5c0.1,0.3,0.3,0.6,0.2,0.9c-0.8,3.6,0.6,6.6,2.3,9.6
				c0.5,0.8,0.3,2,0.3,3C936.4,514.3,939,517.8,940.8,521.6z M956.1,401.3c-0.9,3.1-3.4,5-4.2,7.9c-0.6,2-0.7,3.1,2.1,3.2
				c4.3,0.1,8.6-0.4,12.9-0.8c1.1-0.1,2.9,0.8,3-1.1c0.1-1.5,0.2-3.5-2-4c-2.2-0.5-3.1-2.2-4-4c-1.2-2.3-1.4-4.9-1.9-7.3
				c-3,2.5-3.7,6.1-4.2,10.2C956.4,403.9,957.5,402.5,956.1,401.3z M933.7,478.6c-6.2,0.1-6.3,0.3-5,5.5c0,0.1,0.1,0.2,0.1,0.3
				c0.1,1.1,0.7,1.4,1.7,1.1c2.9-0.8,5.7-1.5,8.6-2.3c1.2-0.3,1.9-1.3,2-2.5c0.1-1.5-1.3-1.3-2.2-1.6
				C937.1,478.4,935.2,478.7,933.7,478.6z M984.9,499.7c-1.7,0.6-3.6,0.8-2.9,2.3c1.5,3.1,0.6,6.4,1.6,9.5
				C982.9,507.5,984.9,503.9,984.9,499.7z"/>
		</g>
		<g>
			<path d="M739.7,368.4c2.6-1.6,4.5-4.1,8-3.9c1.3,0.1,2.3,0,3.1,1.3c0.5,0.8,0.9,2,2.4,1.3c0.2-0.1,0.8,0.1,0.8,0.2
				c0.1,2,0.6,3.7,3.2,3.1c0.1,0.4,0.3,0.8,0.2,1.1c-0.7,2.1-0.7,2.1,1.2,1.8c1.2-0.2,1.8,0.7,1.4,1.4c-1.7,2.8-0.3,5.2,1.1,7.3
				c8.2,13,16.6,25.9,24.8,38.9c0.7,1,1.2,1.9,2.5,0.7c0.3-0.3,0.7-0.5,1.1-0.5c5.6-0.7,9-4.1,11.4-8.9c0.4-0.7,0.9-1.6,1.5-1.9
				c5.7-2.6,7.4-8.6,11.2-12.9c1.8-2.1,3.4-4.4,5.5-6.2c4-3.4,8.6-3.7,13.4-2.4c1.8,0.5,2.4,0.4,2.8-1.6c0.4-2.1,0.7-3.8-0.2-6.1
				c-2.7-6.9-0.1-12.9,7.3-17.1c4-2.3,8.3-4.1,13.2-3.9c3.6,0.1,6.2,1.8,7.8,4.7c3,5.3,3.8,10.9,1.8,16.9c-1.2,3.7-1.8,7.5-3.8,11
				c-1.1,1.9,0,5-0.1,7.6c-0.1,6.9,4.3,12.2,6.1,18.4c0.4,1.5,1.1,2.8,1.1,4.4c-0.1,3.8-0.3,7.6,0.7,11.4c0.3,1.2-0.1,2.2-0.4,3.3
				c-0.4,1.2-0.8,2.3-1,3.5c-1.1,7.4-4.3,14.1-6.6,21c-0.7,2.1-1.6,4.3-2.1,6.5c-0.7,3.8-3.1,6.6-5.3,9.6c-0.8,1.2-2,1.3-3.3,1.3
				c-4.5,0.2-8.9-0.4-13.3-0.9c-0.9-0.1-1.9-0.6-2.2,0.8c-1.6,7.2-6.9,11.3-12.6,14.9c-5.1,3.3-7.8,7.9-9.1,13.6
				c-0.2,1-0.6,1.9-1.1,2.9c-1.9,4.1-2.9,8.3-3.3,12.8c-0.4,4.1-2.4,7.8-2.7,12c-0.1,0.9-0.2,1.5,0.4,2.3
				c6.4,8.3,9.9,17.9,12.9,27.8c0.2,0.8,0.3,1.7,0.9,2.3c4,4,4.7,9.2,5.4,14.5c0.7,4.7,1.8,9.4,3.9,13.8c1.1,2.2,0.5,3.7-1.8,4.7
				c-0.9,0.3-1.8,0.7-2.5,1.3c-5.6,5.1-12.3,5.7-19.4,5c-1.9-0.2-4.2-0.2-5-2.3c-0.9-2.4,0.6-4.1,2.6-5.3c4.9-2.9,7.4-7.2,7.4-13
				c0-1.8-0.3-3.4-1.6-4.5c-2.4-2.1-3.5-4.8-4.5-7.6c-2.2-5.9-5.4-11.3-8.7-16.8c-1.1,1.1-2.1,2.2-3.1,3.2c-1.4,1.4-2.9,1.3-4.6,0.6
				c-1.9-0.7-1.7-2.2-1.4-3.6c0.6-2.8,1.1-5.7,2.1-8.4c0.6-1.8,0.5-3.3-0.8-4.5c-3-2.5-3.7-5.8-3.5-9.5c0.1-1.7-0.2-3.1-2.5-2.7
				c-1.1,0.2-2-0.2-2.8-1c-0.9-1-2.1-1.4-3.3-1.4c-2.7,0.1-4.9-1.3-7.2-2.4c-8.6-4.3-16.6-9.8-26.4-11.8c-4.1-0.8-8.7-2.6-11.1-6.9
				c-1.8-3.2-2.1-6.4-0.2-9.7c3.4-6,7.7-11.2,12.8-15.8c6.7-6,13.9-11.4,21.3-16.4c2.2-1.5,4.7-2.8,7.2-3.4c4.3-1,5.5-5.1,7.9-7.8
				c1-1.1-1-2.2-2.1-2.8c-2.6-1.5-2.4-3.9-1.6-6c0.8-2,2.5-3.4,4.9-2c1.3,0.8,2.4,0.4,3.4-0.5c1.1-1,0.1-1.9-0.1-2.8
				c-0.8-2.9-2.8-5.3-2.8-8.5c0-0.6-0.3-1-0.8-1.2c-5.3-1.8-7.3-7-10.8-10.7c-1.7-1.9-1.9-4.7,0.6-6.5c1.9-1.4,1.6-2.6,0.5-4.3
				c-5.5-8.5-11-17-16.1-25.8c-1.8-3.1-5.4-2.9-7.4-5.2c-0.2-0.3-1.1,0.2-1.5,0.8c-0.5,0.9-1.2,0.7-1.7,0c-0.4-0.8-0.2-1.4,0.8-1.4
				c1.3,0,1.8-0.6,0.8-1.7c-0.7-0.7-1-2.8-2.6-1.1c-0.8,0.8-1.3,1.5-2.1,0.2c-0.6-1,0.1-1.5,1.1-1.5c1,0,1.3-0.5,0.7-1.4
				c-0.5-0.6-0.8-1.7-1.9-0.9c-0.7,0.6-1.2,2.2-2.2,0.6c-0.8-1.4,0.4-1.4,1.3-1.6c1-0.2,0.6-0.8,0.3-1.3
				C741.1,370.3,740.4,369.4,739.7,368.4z M785.1,507.5c-0.1-3.2-0.2-6.4-0.8-9.5c-0.3-1.8-0.9-1.9-2.4-1.3
				c-3.2,1.3-6.5,2.5-9.8,3.6c-2.6,0.9-5.3,1.6-7.9,2.4c-0.6,0.2-1.3,0.3-1.4,1c0,0.2,0.4,0.7,0.7,0.8c6.4,3.4,13.5,5.3,19.5,9.6
				c1.4,1,2.2,0.5,2.1-1.4C785,511,785.1,509.3,785.1,507.5z"/>
		</g>
		<g>
			<path d="M480.8,577.5c8.4,0.3,16.2,0.3,23.9,0.2c4.5,0,9.2-0.8,13.6-2.2c0.2-0.1,0.4-0.2,0.6-0.2c6.9-1.7,7.6-2,13.1-6.2
				c1.2-0.9,2.6-1.1,3.8-0.5c5.6,2.8,11,5.3,15,10.8c4.6,6.2,9.4,12.3,12.9,19.2c0.6,1.1,2.1,2.8,1.1,3.5c-1.3,0.9-3.3,0.7-4.9-0.4
				c-4.2-2.9-8.6-5.2-13.4-7.1c-2.7-1-5.4-2-8.4-1c-1.2,0.4-2.2,0.3-3.2-1.3c-1.6-2.6-7.6-3.8-10.6-2.6c-0.8,0.3-1.6,0.5-2.4,0.4
				c-7.1-0.4-13.9,1.3-20.8,2.3c-8.3,1.3-16.7,2.3-25.1,3.7c-3.5,0.6-6.8,1.7-10.1,2.7c-4.7,1.5-9.4,1.3-14.1,0.5
				c-4.6-0.8-8-3.5-10.4-7.2c-2-3-1.3-6.6,0.4-9.5c5.8-9.4,9.5-19.7,13.7-29.7c0.3-0.7,0.6-1.3,1-1.9c2.4-4,2.5-4.2-2.2-5.7
				c-9.4-3.1-19-5-28.7-7.1c-11.8-2.5-23.7-1.1-35.4-2.8c-7.5-1.1-14.6-3.5-22.1-4.7c-4.4-0.7-8.8-0.4-13.2-0.9
				c-3.4-0.4-6.6-2.5-10.2-1.9c-1.8,0.3-3.7,0.6-5.5,0.8c-4.2,0.6-8-1.4-12-2.2c-0.9-0.2-0.8-1.1-0.9-1.8c-0.2-2.1,0-4.3,0.8-6.1
				c3.4-7.5,4.2-15.9,8.4-23.1c1.8-3,3.6-6.1,6.3-8.4c0.8-0.7,1.7-1.9,2.9-1.1c1.3,0.8,2.2,2,2,3.6c-0.1,0.6-0.2,1.3-0.5,1.8
				c-3.2,5-1.1,9.6,1.1,14.2c0.9,1.8,2.3,3.4,2.5,5.6c0.2,1.5,1.9,2,3.1,2.9c1.3,0.9,2.3,1.2,3.2-0.5c0.5-1,1.6-0.3,2.2,0.1
				c12.9,5.9,26.4,6,40.3,5.2c7.9-0.5,15.8-1,23.7-2.1c5.5-0.8,11.1,0.8,16.6,1c5,0.2,9.9,0.8,15.4,1.3c-1.3-2.4-3.2-3.2-4.8-3.9
				c-2.8-1.2-5.8-2-8.8-2.8c-2.8-0.7-5.3-1.8-7.9-2.9c-4.3-1.8-9-4.5-14.3-2.1c-2.9,1.3-5.8,0.2-6.9-1.9c-1.5-2.9-0.8-5.9,1.9-8
				c2.1-1.6,2-2.8-0.2-4.3c-3.3-2.3-6.7-3.7-10.7-1.7c-1,0.5-1.7,0.2-2.5-0.5c-1.2-1.2-2.5-2.2-3.6-3.4c-1.4-1.4-2.5-2.6-4.9-2
				c-2.4,0.7-4.7-1.3-4.6-3.3c0.1-2.8,2.2-3.1,4.4-3.4c0.8-0.1,2.1,1.1,2.3-0.8c0,0,0.7-0.1,0.7-0.1c0.4,2.2,1.1,2.3,2.2,0.4
				c0,0,0.4,0.1,0.5,0.2c3,2.5,3,2.5,6.3,1.7c0.3-0.1,0.6-0.1,0.7,0.2c0.3,2.7,2.9,1.9,4,1.9c3.1,0,5.1,1,6.5,3.8
				c0.4,0.7,1.5,1.1,2.3,1.5c5.8,3.1,11.6,6.4,17.5,9.4c6.8,3.4,13.8,6.3,21.4,7.3c0.6,0.1,1.2,0.4,1.7,0.6c1.5,0.6,2.2,0.2,1.8-1.5
				c-0.3-1.2-0.6-2.6,0.6-3.4c4.9-3.4,6.6-9.4,10.8-13.4c2.2-2.1,4-4.5,5.3-7.2c0.4-0.8,1.7-1.9,0.4-2.6c-1-0.6-2.8-1.1-3.6,0.2
				c-1.3,2.1-2.7,1.3-3.8,0.2c-3.5-3.6-8.3-3.9-12.7-5c-4.5-1.2-8.1-7.6-7-13.4c0.5-2.7,1.4-5.4,2.1-8.1c0.7-2.8,2.6-4,5.2-4.6
				c8.4-2.1,15.8,1.2,23.3,4.1c6.3,2.4,12.5,5.1,19.6,4c1.9-0.3,3.4,1.3,5.2,1.7c5.6,1.2,10.6,4,15.4,7c4.9,3.1,8.7,7.4,8.5,13.8
				c-0.1,2.4,0.6,4.5,1.7,6.5c3.5,6.1,5.5,12.9,7.8,19.5c0.5,1.5,0.5,3,0.5,4.6c0,2.4-1.2,3.6-3.3,4.2c-1.1,0.3-2.3,0.5-3.3,1
				c-2.4,1.2-4.3,2.8-5,5.9c-0.9,3.8-2.4,7.4-3.7,11.1c-1.8,5.2-2.5,10.4-1.1,15.8c0.9,3.5,0,4.5-3.5,3.9c-1.6-0.3-2.6,0.2-3.3,1.5
				c-3.2,6.6-9.3,9.2-15.7,11.5c-6.2,2.3-11.6,6.1-15.5,11.7C483.6,575.2,482.6,576.3,480.8,577.5z M478,483.1
				c-2.6,6.1-9.2,8.6-10.8,15.3c2.5-0.2,4.4,1.1,6.7,1.7c0.3-2.4,0.6-4.5,2.1-6.3C478.4,490.9,479.7,487.6,478,483.1z"/>
		</g>
		<g>
			<path d="M638.4,499.8c-2.3,6.3-4.5,12.1-6.5,18.1c-2.3,7-6.2,13.3-8.3,20.3c-3.4,10.9-8.3,21.4-8.8,33c-0.1,1.1,0.1,2.3-1.4,2.7
				c-0.7,0.2-1,0.7-1.1,1.4c-0.9,4.5-1.9,9-2.6,13.6c-0.7,4.5,1.2,8.5,1.3,12.9c0.1,2.1,1.3,4.6,2.2,6.9c0.9,2.4,0.3,3.9-2.5,4.4
				c-3.9,0.7-7.3-0.6-10.6-2.5c-0.4-0.2-0.8-0.8-0.8-1.2c-0.4-5-2.9-9.8-2.4-14.9c0.5-4.8,1.1-9.5,2.4-14.2c0.7-2.3,1.1-4.8,1.4-7.2
				c1.5-14.2,4.1-28.3,8-42.1c1.4-4.9,3.7-9.6,4.8-14.6c1.5-6.9,2.1-13.9,2.4-20.9c0.3-6.4,0.9-12.9,0.6-19.3
				c-0.2-5.1,0-10.2,3.1-14.9c1.1-1.7,0.2-4.8,0.2-7.3c0-0.6-0.3-1.4,0-1.8c2.1-3.5-0.6-5-2.6-6.9c-3.8-3.4-7.5-7.2-12.5-9
				c-0.2-0.1-0.4-0.2-0.5-0.3c-2.4-5-8.1-4.3-11.9-7.1c-2.7-2-4.3-4.1-3-7.1c0.7-1.7-0.1-2.3-0.9-3.6c-2.4-3.9-7.2-3.6-10.3-6.1
				c-0.2-0.2-0.8-0.2-0.8-0.2c-0.4,0.8-0.8,1.7-1.8,0.8c-0.8-0.7,0.1-1.1,0.3-1.7c0.3-1.1-1-1.2-1.6-1.8c-0.4-0.4-1.1-1.2-1.6,0
				c-0.3,0.8-0.9,0.8-1.5,0.3c-0.2-0.2-0.3-0.7-0.3-1.1c0.3-2.2-0.8-3.2-3.1-2.3c-0.6,0.2-1.3,0.1-1.3-0.3c0.2-2.6-2.7-5.2,0.1-7.9
				c1.7-1.7,3.7-2.8,5.7-4.1c0.8-0.5,1.3,0.4,1.9,0.7c0.9,0.5,1.4,1.7,2.9,0.7c0.7-0.5,1.1,0.5,1.1,1.5c0,1.6,0.8,2.7,2.7,1.7
				c1-0.5,1.6,0,1.6,1c0.1,2.8,0.5,3.1,3,2.6c0.5-0.1,1.1,0.1,1.1,0.2c-1,2.3,1.9,3.1,1.8,4.8c-0.1,2,1,3.1,2.3,3.6
				c1.5,0.7,2.5,1.7,3.7,2.6c0.6,0.5,1,1.5,2.3,0.7c1-0.6,2,0.5,2.2,1.1c2.4,6.2,8.3,9.2,12.5,13.8c2.1,2.3,4.9,3.3,7.8,4.1
				c1.5,0.4,2.2,0.1,1.9-1.6c-0.7-3.2-2.1-6.2-3-9.3c-1.4-4.4-4.2-8.8-3.4-13.5c0.8-4.4,2.3-9.1,7.5-10.7c0.6-0.2,1.2-0.5,1.2-1.2
				c0.1-4.7,2.2-9.1,2.3-13.9c0.2-5.2,0.6-10.7,4.6-15c0.7-0.8,1.1-2,1.3-3.1c0.7-3.5,2.5-5.9,5.7-7.9c5.9-3.7,13.1-3.3,17.4,2.1
				c4.6,5.7,9.3,11.6,9.4,19.6c0,3.1-0.8,6.1-0.3,9.2c0.5,3.2,1.9,4.9,5.3,5.8c4.6,1.2,9.2,3.3,11,7.8c1.8,4.5,4.8,9,3,14.6
				c-0.5,1.5,0.5,3.6,1,5.4c1.2,4.7,1.4,9.6,2.9,14.2c0.6,1.9-0.2,3.6-1.1,5.3c-3,6-5.6,12.2-8,18.4c-0.7,1.9-0.4,2.9,1.9,3.2
				c8.5,0.8,14.6,5.9,20,11.8c4.1,4.5,3.8,10,1.9,15.5c-3.1,8.6-9,15.3-15.4,21.5c-1.7,1.6-2.1,3-1.9,5.3c0.3,4.7,0.9,9.5,2.5,13.6
				c2,5,2.8,10.3,5.2,15.1c1.7,3.3,2.8,6.9,3.3,10.6c0.4,3,1.4,5.8,2.7,8.5c1.6,3.3,2,6.8,2.5,10.4c1.3,8.8,4,17.4,4.2,26.4
				c0.1,2.4,0.8,4.9,1.1,7.3c0.3,2.6-1.1,4-3.6,4.6c-1.7,0.4-3.5,0.4-5.2,0.2c-3.4-0.5-5.3-2.7-5-6.2c0.2-2.9,0.7-5.7-0.5-8.5
				c-0.1-0.2-0.1-0.4,0-0.6c1.6-6.4-1.6-12.1-2.5-18.1c-0.1-0.8-0.1-1.8-0.9-2.2c-3.2-1.8-3.3-5.2-4.1-8.2
				c-2.7-9.7-8.1-18.5-10.6-28.3c-1.4-5.3-4.9-9.6-5.9-14.7c-0.8-4-2.6-5.4-6.3-5.4c-1.1,0-2.2-0.5-3.3-0.6
				c-7.6-1.1-12.5-5.4-15.4-12.3C640.8,505.4,639.7,502.8,638.4,499.8z M674.1,441.3c5.1-6.1,0.8-11.8-0.7-17.5
				C671.7,429.7,671,435.6,674.1,441.3z"/>
		</g>
	</g>
	<g>
		<path d="M55.4,776.1l-4.6-12.4h36.5v11.9h29.2c3.2,0,5.4-1.2,6.6-3.6c1.2-2.4,1.7-5,1.7-7.8v-5.9c0-3.5-0.8-6.4-2.4-8.8
			c-1.6-2.4-3.6-3.6-5.9-3.6H83.3c-4.4,0-8.5-1.2-12.3-3.6c-3.8-2.4-7.1-5.6-9.9-9.7c-2.8-4-5-8.7-6.6-14.1
			c-1.6-5.4-2.4-10.9-2.4-16.7V682c0-5.9,0.7-11.5,2.2-16.8c1.5-5.3,3.6-9.9,6.2-13.9c2.7-4,5.7-7.1,9.2-9.4
			c3.5-2.3,7.2-3.5,11.2-3.5h40.2c5.5,0,10.1,0.9,13.8,2.7c3.7,1.8,6.5,4.5,8.6,7.9c2.1,3.5,3.6,7.6,4.4,12.4
			c0.8,4.8,1.2,10.1,1.1,16.1l4.3,11.9h-36.5v-12.4H87.6c-1.6,0-2.9,0.4-3.9,1.2c-1.1,0.8-1.9,1.9-2.5,3.1c-0.6,1.2-1,2.5-1.2,3.8
			c-0.2,1.3-0.3,2.6-0.3,3.7v5.4c0,3.5,0.7,6.5,2.2,9c1.5,2.6,3.4,3.8,5.7,3.8h16.6h16.9c5.1,0,9.5,1.4,13.4,4.2
			c3.8,2.8,7,6.4,9.5,10.6c2.5,4.3,4.5,9,5.7,14.2c1.3,5.2,1.9,10.2,1.9,15v19.3c0,6.1-0.7,11.8-2.2,17.1c-1.5,5.3-3.5,9.9-6.1,13.9
			c-2.5,4-5.6,7.1-9,9.3c-3.5,2.2-7.2,3.3-11.2,3.3H83c-5.6,0-10.3-0.9-13.9-2.7c-3.7-1.8-6.5-4.4-8.6-7.7c-2-3.3-3.5-7.3-4.2-12
			C55.4,787.1,55.2,781.8,55.4,776.1z"/>
		<path d="M201.5,794.4V676.6h-23.9l-15.9,14.4v-52.5h108.3v52.5l-17.3-14.4h-23.2v118.3l11,19.3h-49.5L201.5,794.4z"/>
		<path d="M328,814.2h-49.5l10.3-19.8V659.2l-10.3-20.8h76.4c4,0,7.7,1.1,11.2,3.3c3.5,2.2,6.6,5.3,9.2,9.3c2.7,4,4.7,8.5,6.2,13.7
			c1.5,5.2,2.2,10.8,2.2,16.7v27.2c0,5-0.5,9.7-1.6,14.1c-1.1,4.5-2.5,8.5-4.4,12.3c-1.9,3.7-4.1,6.9-6.6,9.5
			c-2.5,2.6-5.3,4.5-8.3,5.7l17.9,44.6l13.3,19.3h-52.8l7.6-19.8l-17.3-42.1h-14.6v42.1L328,814.2z M358.9,694.9
			c0-5.3-1.1-9.7-3.2-13.1c-2.1-3.5-4.9-5.2-8.5-5.2l-30.2-0.5v0.5v37.6h30.2c3.5,0,6.4-1.9,8.5-5.7
			C357.8,704.7,358.9,700.2,358.9,694.9z"/>
		<path d="M477.1,814.2l11.3-19.3l-5.6-29.7h-34.2l-5.6,29.7l11.6,19.3h-53.1l13.6-19.8l25.2-135.1l-6.6-20.8H498l-7,20.8
			l25.2,135.1l13.9,19.8H477.1z M465.8,673.6l-10,52.5h19.6L465.8,673.6z"/>
		<path d="M548.8,794.9V659.2l-10.6-20.8H588l-11,20.3l50.8,75.7v-75.2l-10.6-20.8h49.1l-10.6,20.3v136.6l11,18.8h-49.5l9.6-17.8
			l-49.8-74.8v73.8l11,18.8h-49.5L548.8,794.9z"/>
		<path d="M684,771.1v-89.6c0-5.9,0.7-11.5,2.2-16.7c1.5-5.2,3.6-9.8,6.2-13.7c2.7-4,5.7-7.1,9.2-9.3c3.5-2.2,7.2-3.3,11.2-3.3H774
			v50.5L757,676.6h-34.9c-3.3,0-6.1,1.7-8.5,5.1c-2.3,3.4-3.5,7.5-3.5,12.3v64.9c0,5,1.2,9.1,3.5,12.4c2.3,3.3,5.1,5,8.5,5h30.5
			v-35.6l-8.6-18.8h45.2l-8.6,18.8v73.8h-67.7c-4,0-7.7-1.1-11.2-3.3c-3.5-2.2-6.6-5.3-9.2-9.3c-2.7-4-4.7-8.5-6.2-13.7
			C684.7,782.6,684,777.1,684,771.1z"/>
		<path d="M874.3,814.2h-75.4l10.3-19.3V659.2l-10.6-20.8h92.3v51l-18.3-12.9h-34.9v30.7h19.9l12.3-11.9l0.3,60.4l-12.6-10.9h-19.9
			v31.2h65.4c-0.4,5.3-1.5,10.2-3.2,14.9c-1.7,4.6-3.8,8.7-6.3,12.1c-2.5,3.5-5.5,6.2-8.8,8.2C881.6,813.2,878,814.2,874.3,814.2z"
			/>
		<path d="M962.9,814.2h-49.5l10.3-19.8V659.2l-10.3-20.8h76.4c4,0,7.7,1.1,11.2,3.3c3.5,2.2,6.6,5.3,9.2,9.3
			c2.7,4,4.7,8.5,6.2,13.7c1.5,5.2,2.2,10.8,2.2,16.7v27.2c0,5-0.5,9.7-1.6,14.1c-1.1,4.5-2.5,8.5-4.4,12.3
			c-1.9,3.7-4.1,6.9-6.6,9.5c-2.5,2.6-5.3,4.5-8.3,5.7l17.9,44.6l13.3,19.3h-52.8l7.6-19.8l-17.3-42.1H952v42.1L962.9,814.2z
			 M993.8,694.9c0-5.3-1.1-9.7-3.2-13.1c-2.1-3.5-4.9-5.2-8.5-5.2l-30.2-0.5v0.5v37.6h30.2c3.5,0,6.4-1.9,8.5-5.7
			C992.7,704.7,993.8,700.2,993.8,694.9z"/>
	</g>
	<g>
		<rect x="56.7" y="602.9" width="965.7" height="11.7"/>
	</g>
</g>
</svg>
